<svg xmlns="http://www.w3.org/2000/svg" xmlns:xlink="http://www.w3.org/1999/xlink" width="598" height="367" xmlns:v="https://vecta.io/nano"><style><![CDATA[.B{fill-rule:nonzero}.C{fill:#26264f}.D{fill:#7e7c7c}]]></style><defs><linearGradient x1="76.8904297%" y1="108.925446%" x2="10.0334496%" y2="24.2733858%" id="A"><stop stop-color="#357ecc" offset="0%"/><stop stop-color="#0D3878" offset="100%"/></linearGradient><linearGradient x1="51.3336121%" y1="77.1423358%" x2="1.40179872%" y2="9.7200451%" id="B"><stop stop-color="#fc9b7a" offset="0%"/><stop stop-color="#f55d3e" offset="100%"/></linearGradient><linearGradient x1="39.8234947%" y1="11.0872205%" x2="128.914764%" y2="211.742472%" id="C"><stop stop-color="#ff9085" offset="0%"/><stop stop-color="#fb6fbb" offset="100%"/></linearGradient><linearGradient x1="39.9346052%" y1="16.5152406%" x2="115.872995%" y2="146.554926%" id="D"><stop stop-color="#ff9085" offset="0%"/><stop stop-color="#fb6fbb" offset="100%"/></linearGradient><linearGradient x1="-54.2421791%" y1="0.0832624744%" x2="217.586205%" y2="192.650846%" id="E"><stop stop-color="#ffc444" offset="0%"/><stop stop-color="#f36f56" offset="100%"/></linearGradient><linearGradient x1="93.5017056%" y1="57.4171714%" x2="-6.75704722%" y2="42.5828286%" id="F"><stop stop-color="#444b8c" offset="0%"/><stop stop-color="#26264f" offset="100%"/></linearGradient><linearGradient x1="44.1705799%" y1="120.51981%" x2="3.44133855%" y2="0%" id="G"><stop stop-color="#5ddafd" offset="0%"/><stop stop-color="#0373e2" offset="100%"/></linearGradient><linearGradient x1="50%" y1="100%" x2="50%" y2="0%" id="H"><stop stop-color="#5ddafd" offset="0%"/><stop stop-color="#0373e2" offset="100%"/></linearGradient><linearGradient x1="60.3876886%" y1="72.3313732%" x2="36.3259277%" y2="11.5780907%" id="I"><stop stop-color="#aa80f9" offset="0%"/><stop stop-color="#6165d7" offset="100%"/></linearGradient><linearGradient x1="79.8620255%" y1="40.0356095%" x2="-101.702705%" y2="81.3636566%" id="J"><stop stop-color="#ffc444" offset="0%"/><stop stop-color="#f36f56" offset="100%"/></linearGradient><linearGradient x1="43.5176119%" y1="120.51981%" x2="-1.77381393%" y2="0%" id="K"><stop stop-color="#5ddafd" offset="0%"/><stop stop-color="#0373e2" offset="100%"/></linearGradient><linearGradient x1="67.2937676%" y1="110.232356%" x2="62.6404644%" y2="-10.7220819%" id="L"><stop stop-color="#ffc444" offset="0%"/><stop stop-color="#f36f56" offset="100%"/></linearGradient><linearGradient x1="70.811776%" y1="66.3562626%" x2="-15.561101%" y2="-81.7459113%" id="M"><stop stop-color="#ffc444" offset="0%"/><stop stop-color="#f36f56" offset="100%"/></linearGradient><linearGradient x1="-114.413821%" y1="99.9167375%" x2="683.501259%" y2="-41.4076585%" id="N"><stop stop-color="#ffc444" offset="0%"/><stop stop-color="#f36f56" offset="100%"/></linearGradient><linearGradient x1="145.765058%" y1="5.03890778%" x2="-220.618669%" y2="81.946712%" id="O"><stop stop-color="#444b8c" offset="0%"/><stop stop-color="#26264f" offset="100%"/></linearGradient><linearGradient x1="37.7904609%" y1="48.051084%" x2="5.02687137%" y2="71.5898353%" id="P"><stop stop-color="#444b8c" offset="0%"/><stop stop-color="#26264f" offset="100%"/></linearGradient><linearGradient x1="-22.415752%" y1="58.1266029%" x2="100.608704%" y2="46.2368323%" id="Q"><stop stop-color="#311944" offset="0%"/><stop stop-color="#6b3976" offset="100%"/></linearGradient><path id="R" d="M71.512 171.837c-.325.062-.571.346-.598.694-.026.357.181.687.502.801l27.248 9.335 50.915-21.034-24.205 1.93-53.863 8.275z"/></defs><g transform="matrix(.999848 .017452 -.017452 .999848 6.618555 .419994)" fill="none" fill-rule="evenodd"><path d="M207.796 219.157c-14.172 1.107-15.824 1.909-28.862 4.369-15.263 2.88-44.198 7.137-51.193 8.124-35.217 4.959-109.612 27.531-108.327 45.538.319 4.431 5.058 6.304 36.501 21.359 51.983 24.893 46.894 23.543 53.135 25.689 33.528 11.508 62.719 10.014 88.947 8.657 6.916-.358 25.631-2.712 62.688-8.062l62.4-8.734 126.59-13.882c8.71-1.502 17.893-4.861 21.879-6.592.346-.151.618-.271.915-.417a78.02 78.02 0 0 0 11.651-7c7.579-5.69 46.782-6.03 50.571-6.079 24.409-.312 53.837-7.243 54.228-13.689.457-7.568-39.738-3.706-92.895-28.203-15.089-6.953-40.539-20.502-74.963-18.772-2.201.11-3.74.262-4.991.35-58.544 4.187-127.591-8.975-208.275-2.658z" fill="#f7f9fa"/><path d="M198.952 252.732c-7.239.868-8.064 1.285-14.685 2.761-7.75 1.727-29.572-7.27-33.133-6.634-41.182 3.553-66.6 6.998-65.457 15.419.283 2.072 9.052 12.485 25.582 18.779 27.049 10.3 92.525 36.91 280.38-15.074 1.453-.52 2.21-2.119 1.69-3.572-.155-.434-.415-.822-.757-1.131-9.806-8.872-24.993-13.774-45.561-14.707-7.926-2.893-21.014-1.658-38.623 0-1.126.106-1.911.215-2.55.287-29.913 3.405-65.678-1.076-106.888 3.873z" fill="#e9ecf0" opacity=".6"/><path d="M88.574 233.467c11.59 8.522 24.691 14.854 38.636 18.673l10.969 1.806c4.401-6.561 5.748-13.426-2.936-18.52-13.482-7.894-7.375-33.165-1.089-41.062 7.776-9.801 25.41-32.985 4.757-45.54-17.193-10.456-30.454-13.714-25.7-37.648s-4.572-41.929-26.774-45.928c-23.327-4.209-34.451-38.875-55.838-33.504-37.253 9.361-20.923 68.763 15.061 93.714s9.504 33.389 3.472 52.448c-8.236 26.016 29.537 29.385 36.505 42.13 2.133 4.007 2.341 10.568 2.245 11.66s.518 1.645.693 1.772z" fill="url(#A)" transform="matrix(.996195 -.087156 .087156 .996195 -12.124509 7.429323)"/><g class="B"><path d="M104.491 18.547S67.585-44.962 17.68 63.062c-38.858 84.126-13.742 177.734 76.145 203.423s230.327-26.187 186.247-62.746C186.595 126.192 115.635 57.461 104.491 18.547z" fill="url(#B)" transform="translate(95.98 5.962)"/><path d="M154.088 81.786c-2.624 7.716-3.222 29.69-2.11 54.964.985 22.546-1.07 34.334 34.929 50.73 12.338 5.62 20.874 23.455 39.765 34.063 8.566 4.819 40.829 22.215 82.499 15.185 27.572-4.656 48.102-18.131 61.921-30.684-91.053-76.028-159.732-143.178-170.68-181.494 0 0-13.493-23.251-35.183-17.745 5.265 5.843 7.049 21.582-11.141 74.98z" opacity=".35" style="mix-blend-mode:multiply" fill="url(#C)"/><path d="M333.724 246.873c-42.514 23.355-113.528 37.615-166.43-1.479-48.986-36.19-53.35-96.788-54.993-115.298-2.852-32.331 3.493-60.478 12.648-83.184-3.68 6.396-7.445 13.695-11.289 22.021-38.858 84.164-13.742 177.814 76.145 203.514 88.497 25.291 225.932-24.594 188.186-61.043-12.612 14.25-27.584 26.246-44.267 35.469z" opacity=".13" style="mix-blend-mode:multiply" fill="url(#D)"/></g><path d="M266.532 253.873c-1.251 0-2.508 0-3.783-.042-32.684-.742-78.565-11.601-111.556-59.33-27.866-40.297-24.137-85.771-16.102-116.826 8.697-33.613 24.173-58.033 24.33-58.28a.6.6 0 0 1 .713-.062c.225.139.334.409.268.665-.156.241-15.548 24.534-24.191 57.973-7.97 30.808-11.669 75.914 15.933 115.825 32.714 47.307 78.222 58.099 110.63 58.829 35.174.784 62.897-9.755 63.155-9.863a.6.6 0 0 1 .758.338c.104.301-.044.631-.337.754-.253.145-26.248 10.02-59.817 10.02z" fill="#ffc444" opacity=".3"/><g transform="translate(164.194)"><path d="M279.142 251.412c-2.326-2.557-6.492-13.579 1.103-15.842s11.886-5.164 22.4-13.787 13.223-1.227-1.636 12.787-18.564 20.484-21.867 16.841z" class="B C"/><path d="M269.242 235.086l6.292 5.311c1.314 1.11 3.225 1.255 4.701.356a2.46 2.46 0 0 0 1.189-1.916c.058-.785-.274-1.55-.894-2.06l-9.197-7.614-2.091 5.923z" fill="url(#E)"/><g class="B"><path d="M81.46 181.716c-11.111 9.83 12.081 42.058 49.139 31.631 44.903-12.659 102.014-6.971 140.512 24.672 2.236-2.007 7.767-5.152 5.236-7.738-34.78-35.5-66.987-55.878-93.669-61.347-40.318-8.291-69.56-15.201-101.219 12.78z" fill="url(#F)"/><path d="M210.354 195.95c6.5 3.782 7.889-3.897 11.244-8.954-14.395-8.839-27.917-14.54-40.237-17.042-40.249-8.178-69.429-15.033-101.014 12.628-11.088 9.717 12.056 41.576 49.034 31.269 13.877-3.808 28.177-5.863 42.564-6.115 11.857-7.444 21.55-24.534 38.409-11.786z" opacity=".24" style="mix-blend-mode:multiply" fill="#552d63"/><path d="M72.996 215.016l-2.272.862s-14.72-13.836-17.34-17.355c-3.204-4.303 32.835-15.272 44.538-29.623 12.303-15.081 2.585 17.905 2.585 17.905l-27.51 28.21z" class="C"/></g><path d="M60.939 78.602s13.123 1.809 27.521 27.286c10.822 19.164 34.327 35.035 34.327 35.035l2.416 15.075-19.501 3.419-6.981-4.583-19.03-40.402-18.752-35.831z" fill="url(#G)"/><path d="M34.075 76.845s-32.252 3.996-32.944 41.27c-.638 34.397 11.717 47.756 42.031 76.404 3.051 2.89 7.992 2.89 8.359 3.301 1.97 2.233 3.964 4.562 5.982 6.988 27.136-26.151 57.727-35.013 57.727-35.013S86.945 111 74.506 91.51C61.687 71.404 42.35 74.832 34.075 76.845z" fill="url(#H)"/><path d="M88.691 163.963c-13.613 7.264-32.908 6.441-39.997-2.545-5.344-6.771-6.211-9.299-12.717-19.93-5.236-8.554-7.782-9.923-19.216-17.127-5.317-3.391-10.04-7.629-13.98-12.546-.32 2.288-.501 4.594-.542 6.904-.638 34.158 11.717 47.424 42.031 75.873 3.051 2.869 7.992 2.869 8.359 3.278a314.49 314.49 0 0 1 5.982 6.94c27.136-25.969 57.727-34.77 57.727-34.77l-10.911-22.091c-4.55 7.534-8.004 11.358-16.737 16.016z" opacity=".2" style="mix-blend-mode:multiply" fill="url(#I)" class="B"/><path d="M66.479 164.937s6.078.269 10.396-1.398 3.964-2.045 8.935-2.647c4.833-.573 14.372-3.334 8.983-8.021-5.988-5.219-16.283-3.758-19.235-.292-2.845 3.34-7.785 5.46-7.785 5.46l-1.294 6.898z" fill="url(#J)"/><path d="M10.737 96.519s-17.914 2.063-7.464 59.214c5.418 29.637 32.222 25.469 64.583 13.22 2.191-4.538-.602-14.163-.602-14.163s-40.204 16.423-41.246-7.537c-1.192-26.864-4.822-53.543-15.272-50.735z" fill="url(#K)"/><g fill="#0373e2"><path d="M41.734 89.672c-7.818 0-15.747-5.823-16.127-6.107-.133-.098-.163-.285-.067-.42.101-.129.284-.156.417-.062.104.08 10.547 7.731 19.009 5.613 2.336-.587 3.937-1.741 4.758-3.421 1.558-3.205-.208-7.323-.227-7.367-.064-.15.004-.324.153-.389a.3.3 0 0 1 .392.148c.074.179 1.895 4.409.215 7.867-.901 1.852-2.631 3.087-5.151 3.742-1.104.269-2.237.402-3.373.395h0z"/><path d="M54.58 197.058c-.12.001-.227-.074-.27-.187s-.011-.241.078-.321c.287-.26 29.013-26.258 54.942-32.694.075-.02.154-.009.221.031a.29.29 0 0 1 .133.181c.035.156-.057.313-.21.357-25.791 6.375-54.415 32.276-54.696 32.536a.31.31 0 0 1-.198.097z" opacity=".3"/></g><path d="M24.376 52.032s5.155 20.765 4.122 24.985 5.075 8.85 15.777 9.326-1.149-21.309-1.149-21.309L24.376 52.032z" fill="url(#L)"/><path d="M56.21 43.942C68.176 34.779 62.645 1.427 54.84.042c-4.482-.798-4.955 9.822-18.036 17.975-10.195 6.377-18.339 5.168-21.317 12.185-1.395 3.306-1.413 7.857-.218 11.484.606 1.874 1.88 4.231 4.718 8.746l3.123 5.035c1.862 2.805 5.488 7.549 12.275 13.17a42.64 42.64 0 0 1 2.389-7.011c1.297-2.939 2.964-5.701 4.961-8.22 4.943-5.96 10.043-6.836 13.476-9.465z" class="B C"/><path d="M26.792 63.593s6.673 11.384 20.055 10.535c11.979-.756 13.836-28.419 6.208-34.323-2.543-1.968-7.652-2.804-11.812-1.617-2.459.695-3.295 1.747-7.33 2.804-3.725.984-4.775.554-5.897 1.525-1.409 1.23-2.453 4.194-.137 12.3-2.274-2.399-5.014-3.321-6.96-2.386-.666.371-1.219.925-1.6 1.599-1.689 3.149 1.104 7.196 7.473 9.563z" fill="url(#M)"/><path d="M70.445 172.569a.79.79 0 0 0-.642.561c0 .044.103 1.577.103 1.621-.03.356.181.687.509.795l27.593 9.335 51.571-21.034-24.498 1.955-54.635 6.768z" class="D"/><use xlink:href="#R" fill="#c0c6cc"/><g class="D"><use xlink:href="#R" x="7.755" opacity=".1"/><path d="M97.503 182.134l4.075-53.671a1.85 1.85 0 0 1 1.554-1.698l62.042-9.395a1.84 1.84 0 0 1 1.517.453c.413.372.638.911.613 1.469l-3.13 49.753c-.04.863-.663 1.585-1.506 1.746l-63.587 11.874-1.578-.532z"/></g><path d="M98.611 183.773l4.176-55.005c.065-.865.707-1.57 1.551-1.703l60.849-9.695a1.82 1.82 0 0 1 1.508.454 1.88 1.88 0 0 1 .61 1.473l-2.285 50.176c-.035.862-.651 1.585-1.485 1.745l-64.923 12.554z" fill="#c0c6cc"/><path d="M98.611 183.773l65.394-12.258c.841-.156 1.461-.864 1.497-1.707l.697-14.819c-19.48 10.907-43.876 12.294-66.638 16.674l-.95 12.11z" class="D"/><path d="M209.256 173.72c-.9-3.159-2.886-6.656 4.227-9.184 5.139-1.837 14.075-2.449 22.197-2.865 11.376-.612 13.997 6.307-2.633 10.703-10.941 2.853-22.517 5.847-23.791 1.347z" class="B C"/><path d="M218.254 167.561c.182 1.361-.876 2.611-2.418 2.857-3.309.416-2.685-1.075-2.792-2.597s-1.444-2.545 2.412-2.862c1.438-.094 2.691 1.101 2.798 2.603z" fill="url(#N)"/><g class="B"><path d="M182.818 157.73l3.43-.526s6.673.605 25.067 5.537c3.934.605 9.306 11.805-2.235 12.247s-25.577 8.786-25.577 8.786l-.685-26.043z" fill="url(#O)"/><path d="M66.603 209.393s1.628 14.375 35.209 13.04 93.566-35.938 93.192-54.117-22.701-10.919-45.812-.413c-19.506 8.871-49.64 14.004-55.813 14.974-7.933 1.204-28.687 19.622-26.776 26.517z" fill="url(#P)"/><path d="M112.198 191.42c15.555-1.575 19.047-12.706 38.395-15.923 12.545-2.087 16.972 1.606 23.365-2.658 5.048-3.373 7.624-9.248 8.86-15.635-8.576.722-20.15 5.232-31.966 10.614-18.962 8.647-47.949 13.765-55.258 14.925-.217.036-5.121-1.714-5.121-1.714l-6.266 3.722c10.217 5.454 22.31 7.246 27.991 6.669z" opacity=".2" style="mix-blend-mode:multiply" fill="url(#Q)"/></g></g></g></svg>